<?xml version="1.0" standalone="no"?><!DOCTYPE svg PUBLIC "-//W3C//DTD SVG 1.1//EN" "http://www.w3.org/Graphics/SVG/1.1/DTD/svg11.dtd"><svg t="1587038564195" class="icon" viewBox="0 0 1024 1024" version="1.1" xmlns="http://www.w3.org/2000/svg" p-id="2056" xmlns:xlink="http://www.w3.org/1999/xlink" width="200" height="200"><defs><style type="text/css"></style></defs><path d="M967.111 328.932H56.89V215.154a56.889 56.889 0 0 1 56.889-56.89h796.444a56.889 56.889 0 0 1 56.89 56.89v113.778z m0 56.888v426.667a56.889 56.889 0 0 1-56.889 56.889H113.778a56.889 56.889 0 0 1-56.89-56.889V385.82h910.223zM227.556 499.598a28.444 28.444 0 0 0 0 56.89h170.666a28.444 28.444 0 1 0 0-56.89H227.556z m0 113.778a28.444 28.444 0 0 0 0 56.889h113.777a28.444 28.444 0 1 0 0-56.889H227.556z" p-id="2057" fill="#515151"></path></svg>