<?xml version="1.0" standalone="no"?><!DOCTYPE svg PUBLIC "-//W3C//DTD SVG 1.1//EN" "http://www.w3.org/Graphics/SVG/1.1/DTD/svg11.dtd"><svg t="1587038717109" class="icon" viewBox="0 0 1024 1024" version="1.1" xmlns="http://www.w3.org/2000/svg" p-id="3345" xmlns:xlink="http://www.w3.org/1999/xlink" width="200" height="200"><defs><style type="text/css"></style></defs><path d="M61.423 374.093c0-17.872 3.049-30.616 8.798-38.341 5.863-7.614 18.776-11.336 39.018-11.336h124.51V820.96h-53.461c-14.32 0-28.362-0.11-42.287-0.447-14.042-0.227-23.517-0.453-28.703-0.453-17.536 0.679-29.886-2.311-37.043-9.021-7.11-6.596-10.773-19.281-10.773-37.779V630.325c0-7.279 1.235-12.809 3.442-16.297 2.195-3.61 6.931-6.15 14.093-7.505 2.648 0 6.09-1.014 10.767-2.984 4.457-2.086 9.024-5.303 13.538-9.59 4.508-4.285 8.455-9.806 11.67-16.86 3.212-6.88 4.903-15.28 4.903-25.32 0-15.22-3.999-27.06-12.123-35.69-8.119-8.57-16.806-13.648-25.939-14.83-7.046-1.296-12.292-3.55-15.507-6.485-3.27-3.1-4.904-8.176-4.904-15.448V374.093h0.001z m80.807-94.333V253.878c0-13.136 5.125-25.492 15.109-36.71 9.98-11.22 20.921-16.917 32.591-16.917h134.43v79.51H142.23v-0.001z m793.54 215.457c-5.077 1.403-8.913 4.173-11.226 8.565-2.086 4.179-3.436 9.022-3.436 14.217 0 5.406 1.299 10.483 3.436 15.392 2.313 5.075 6.15 8.57 11.226 10.49 5.186 2.085 9.36 6.03 12.239 11.896 2.985 6.033 4.619 12.233 4.844 18.945a53.193 53.193 0 0 1-2.427 18.833c-1.971 5.923-4.846 10.263-8.68 12.969-12.971 7.95-19.398 16.86-19.398 26.782 0 9.925 6.375 19.962 19.397 29.72 2.654 2.086 4.961 5.75 7.273 10.878 2.2 5.42 3.325 10.664 3.325 16.076 0 5.298-1.181 9.811-3.836 13.752-2.648 4.063-7.157 6.037-13.642 6.037h-52.55c-3.721 0-5.928-0.342-6.15-1.124-0.34-0.683 0.111-1.754 1.294-3.331 1.303-1.745 2.88-3.554 4.856-5.64 1.97-1.97 3.547-4.286 4.96-6.937 3.212-9.243 3.212-17.193 0-23.794-3.326-6.712-8.68-12.233-16.637-16.86-5.181-2.647-9.023-6.82-11.108-12.573-2.308-5.524-3.212-11.33-2.87-17.31 0.22-6.034 1.293-11.22 3.32-15.845 1.977-4.739 4.967-8.062 8.687-10.038 5.302-1.975 9.134-5.638 11.672-10.883 2.653-5.192 3.945-10.882 3.945-16.864 0-5.974-1.124-11.444-2.875-16.405-1.97-4.96-4.844-8.46-8.907-10.38-5.077-2.758-9.133-6.593-12.124-12.006-2.932-5.076-4.34-10.993-4.34-17.647 0-6.71 1.182-13.084 3.83-19.402 2.65-6.31 6.712-11.445 12.576-15.391 4.062-2.65 7.272-6.258 9.811-10.884 2.764-4.733 3.946-9.586 4.509-14.886 0.342-5.356-0.899-10.432-2.99-15.393-2.308-5.018-6.37-9.08-12.234-12.406-6.37-3.27-11.22-8.178-14.094-14.379-2.874-6.31-4.398-12.858-4.398-19.397 0-6.71 1.524-12.915 4.398-18.944 2.876-5.864 6.937-10.6 12.124-13.988 10.994-5.861 17.195-14.043 18.046-24.243 1.014-10.263 0.221-19.796-2.428-28.251-2.085-6.71-5.864-12.632-11.561-17.936-5.917-5.353-13.416-7.945-22.44-7.945h-467.34V200.25h548.196c4.514 0 8.235 1.692 11.45 4.962 3.327 3.326 5.524 7.271 6.486 11.954 1.014 4.625 0.677 9.418-1.02 14.379-1.518 4.907-4.62 9.19-9.243 12.518-3.946 3.33-7.39 7.504-10.263 12.857-2.985 5.3-4.399 10.717-4.96 16.408-0.228 5.696 0.671 11.219 2.537 16.916 1.86 5.58 5.412 9.754 10.657 12.407 7.272 3.947 12.575 9.416 16.07 16.297 3.604 6.936 5.47 13.872 5.47 20.747 0 7.052-1.865 13.478-5.412 19.4-3.553 6.033-8.462 10.373-15.004 12.912-7.162 2.766-12.46 6.484-15.617 11.446-3.327 5.018-4.961 10.49-5.414 16.353-0.341 5.98 0.905 11.788 3.721 17.368 2.991 5.698 7.731 10.605 14.21 14.547 6.485 3.836 11.336 9.134 14.21 15.849 2.88 6.542 4.063 13.138 3.832 19.848-0.337 6.589-1.971 12.686-4.846 18.376-2.99 5.528-7.22 8.744-13.137 9.423zM809.233 480.33c-7.725 1.97-13.751 5.863-18.046 11.334-4.172 5.75-6.369 11.446-6.82 17.532-0.226 5.928 1.408 11.901 4.85 17.936 3.72 5.863 8.912 10.147 16.18 12.8 6.375 2.758 11.335 6.712 14.552 11.891 3.326 5.418 5.077 11 5.412 16.98 0.337 5.976-0.898 11.672-3.436 16.859-2.538 5.302-6.49 9.363-11.67 11.897-16.186 8.066-24.7 17.65-25.21 28.871-0.793 11.22 5.412 20.127 18.383 26.896 5.863 2.648 10.598 6.712 14.093 12.348 3.61 5.64 5.528 11.562 5.923 17.93 0.335 6.148-0.905 11.898-3.553 16.748-2.538 5.192-6.822 8.456-12.576 10.598-7.84 1.976-13.757 5.524-18.156 10.89-4.062 5.181-6.258 10.879-6.594 16.741-0.452 6.15 1.182 12.008 4.844 17.936 3.553 6.03 9.25 10.987 16.975 14.993 5.302 2.654 8.907 6.825 11.22 12.355 2.312 5.749 3.105 11.107 2.542 16.405-0.793 5.302-2.543 10.149-5.533 14.32-2.87 4.399-6.93 6.484-12.234 6.484H291.207V324.417h515.042c5.186 0 9.36 2.034 12.344 6.484 2.88 4.29 4.398 9.023 4.85 14.384 0.336 5.354-0.899 10.6-3.552 15.843-2.538 5.245-6.822 8.965-12.576 10.884-5.864 2.028-10.599 5.354-14.21 9.979-3.604 4.566-5.639 9.811-6.37 15.333-0.561 5.698 0.79 11.057 3.948 16.413 3.325 5.353 8.796 9.307 16.631 11.896 5.754 2.654 10.6 6.596 14.1 11.95 3.494 5.356 5.638 10.716 5.863 16.296 0.337 5.808-1.02 11-3.835 16.076-2.874 4.85-7.614 8.404-14.209 10.375z m-234.68 66.65c-3.1 0-6.6-0.336-10.263-1.014-3.5-0.79-4.177-2.764-2.427-6.034 0.788-1.182 3.836-5.92 9.36-13.872a513.704 513.704 0 0 1 18.498-25.32c6.82-9.023 12.969-17.426 19.06-25.32 5.754-7.95 9.359-12.91 10.598-14.996 3.327-5.188 1.299-11.446-5.863-18.776-1.189-1.357-3.837-3.386-7.836-6.092-3.72-2.595-7.33-4.566-10.547-5.864-5.298-1.913-9.023-2.312-11.335-0.957-2.086 1.298-4.961 4.226-8.171 8.907-1.299 1.92-4.514 6.769-9.812 14.327-5.134 7.777-10.657 15.79-16.526 24.414-5.807 8.68-11.22 16.405-16.07 23.233-4.956 7.046-7.667 11.108-8.235 12.516-1.235 2.539-3.774 3.664-7.384 2.991-3.552-0.678-5.92-2.319-7.155-4.967-0.794-1.291-3.611-5.186-8.855-11.56a309.036 309.036 0 0 1-16.581-21.251c-5.754-8.072-11.446-15.282-16.974-22.335-5.58-6.99-9.248-11.724-11.272-14.488-5.87-11.225-12.012-14.83-18.44-10.83-4.57 2.597-8.686 5.412-12.296 8.35-3.552 3.1-6.931 5.58-10.148 7.608-6.485 4.516-7.442 10.547-2.932 17.82 10.994 13.191 20.805 25.43 29.266 36.764 7.1 9.249 13.867 18.047 20.468 26.897 6.427 8.46 10.316 13.42 11.56 14.885 1.35 2.54 0 3.948-3.894 3.948h-11.561c-3.212 0-8.004 0.11-14.093 0.452-6.26 0.34-11.957 0.226-17.201-0.452-5.129 0-9.418 1.181-12.685 3.95-3.16 2.54-4.173 5.861-2.822 9.806 0.625 2.771 0.96 6.713 0.96 11.904v12.123c0 3.21 0.905 5.07 2.933 5.406 1.975 0.284 4.172 0.402 6.82 0.402h56.503c7.667 0 11.557 1.635 11.557 4.961v18.833c0 3.442-0.562 5.077-1.914 5.077H423.604c-3.838-0.68-6.377 0.336-7.726 2.87-1.24 2.768-2.196 5.752-2.933 9.028-0.677 3.435-0.677 6.485 0 9.354 0.737 3.1 0.899 5.642 0.899 7.505 0 8.679 4.23 12.963 12.69 12.963h58.473c3.385 0 5.245 0.451 5.808 1.413 0.62 1.013 1.014 3.21 1.014 6.48 0.678 3.33 0.903 9.25 0.451 17.82-0.279 8.687-0.51 14.266-0.51 17.032 0 7.271 4.231 10.883 12.632 10.883h31.242c5.182 0 7.835-1.635 7.835-5.071V669.06c0-6.707 2.99-10.038 8.687-10.038h8.797c4.508 0 9.696-0.11 15.109-0.562 5.64-0.226 10.884-0.452 15.96-0.452h12.685c9.023 0 13.757-3.327 13.757-9.811V626.26c0-6.032-3.21-9.023-9.695-9.023h-56.613c-6.374 1.41-9.817 0-9.817-3.945 0-1.86-0.11-4.398-0.452-7.39-0.335-2.983-0.388-5.638-0.388-8.403 0-2.536 1.014-4.623 3.326-5.858 2.37-1.414 4.793-2.086 7.331-2.086h57.511c6.374 0 9.7-2.204 9.7-6.937v-23.854c0-2.647-1.125-5.185-3.441-7.835-2.308-2.77-5.072-3.95-8.23-3.95h-33.153z m0 0" p-id="3346"></path></svg>